<!--?xml version="1.0" encoding="UTF-8"?-->
<svg width="256" height="256" viewBox="0 0 24 24" xmlns="http://www.w3.org/2000/svg" role="img" aria-label="GitHub">
  <path fill="#111111" d="M12 .297C5.373.297 0 5.67 0 12.297c0 5.303 3.438 9.8 8.205 11.387.6.113.82-.258.82-.577 0-.285-.01-1.04-.015-2.04-3.338.724-4.042-1.61-4.042-1.61-.546-1.387-1.333-1.757-1.333-1.757-1.09-.745.083-.729.083-.729 1.205.084 1.84 1.236 1.84 1.236 1.07 1.835 2.807 1.305 3.492.998.108-.776.418-1.305.76-1.605-2.665-.3-5.466-1.332-5.466-5.93 0-1.31.468-2.381 1.236-3.221-.124-.303-.536-1.523.117-3.176 0 0 1.008-.322 3.3 1.23.957-.266 1.983-.399 3.003-.404 1.02.005 2.047.138 3.006.404 2.29-1.552 3.295-1.23 3.295-1.23.655 1.653.243 2.873.12 3.176.77.84 1.234 1.911 1.234 3.221 0 4.61-2.807 5.625-5.48 5.92.43.372.823 1.102.823 2.222 0 1.606-.015 2.896-.015 3.293 0 .319.216.694.825.576C20.565 22.092 24 17.592 24 12.297 24 5.67 18.627.297 12 .297z"></path>
</svg>
